<svg xmlns="http://www.w3.org/2000/svg" xmlns:xlink="http://www.w3.org/1999/xlink" width="500" zoomAndPan="magnify" viewBox="0 0 375 374.999991" height="500" preserveAspectRatio="xMidYMid meet" version="1.0"><defs><clipPath id="d51315730c"><path d="M 112.5 112.5 L 262.5 112.5 L 262.5 262.5 L 112.5 262.5 Z M 112.5 112.5 " clip-rule="nonzero"/></clipPath><clipPath id="142a3ab58c"><path d="M 173 135 L 240 135 L 240 262.5 L 173 262.5 Z M 173 135 " clip-rule="nonzero"/></clipPath></defs><rect x="-37.5" width="450" fill="#ffffff" y="-37.499999" height="449.999989" fill-opacity="1"/><rect x="-37.5" width="450" fill="#ffffff" y="-37.499999" height="449.999989" fill-opacity="1"/><g clip-path="url(#d51315730c)"><path fill="#3d5a98" d="M 254.210938 262.488281 C 258.78125 262.488281 262.488281 258.78125 262.488281 254.210938 L 262.488281 120.777344 C 262.488281 116.207031 258.78125 112.5 254.210938 112.5 L 120.777344 112.5 C 116.203125 112.5 112.5 116.207031 112.5 120.777344 L 112.5 254.210938 C 112.5 258.78125 116.203125 262.488281 120.777344 262.488281 Z M 254.210938 262.488281 " fill-opacity="1" fill-rule="nonzero"/></g><g clip-path="url(#142a3ab58c)"><path fill="#ffffff" d="M 215.988281 262.488281 L 215.988281 204.40625 L 235.484375 204.40625 L 238.40625 181.769531 L 215.988281 181.769531 L 215.988281 167.316406 C 215.988281 160.761719 217.808594 156.296875 227.207031 156.296875 L 239.195312 156.292969 L 239.195312 136.046875 C 237.121094 135.769531 230.003906 135.152344 221.726562 135.152344 C 204.445312 135.152344 192.613281 145.703125 192.613281 165.074219 L 192.613281 181.769531 L 173.066406 181.769531 L 173.066406 204.40625 L 192.613281 204.40625 L 192.613281 262.488281 Z M 215.988281 262.488281 " fill-opacity="1" fill-rule="nonzero"/></g></svg>